<?xml version="1.0" encoding="UTF-8" standalone="no"?>
<svg
   xmlns:dc="http://purl.org/dc/elements/1.1/"
   xmlns:cc="http://creativecommons.org/ns#"
   xmlns:rdf="http://www.w3.org/1999/02/22-rdf-syntax-ns#"
   xmlns:svg="http://www.w3.org/2000/svg"
   xmlns="http://www.w3.org/2000/svg"
   viewBox="0 0 342 35"
   preserveAspectRatio="xMidYMid Meet"
   width="342"
   height="35"
   version="1.1"
   id="svg22">
  <metadata
     id="metadata28">
    <rdf:RDF>
      <cc:Work
         rdf:about="">
        <dc:format>image/svg+xml</dc:format>
        <dc:type
           rdf:resource="http://purl.org/dc/dcmitype/StillImage" />
        <dc:title></dc:title>
      </cc:Work>
    </rdf:RDF>
  </metadata>
  <defs
     id="defs26">
    <filter
       style="color-interpolation-filters:sRGB;"
       id="filter54">
      <feColorMatrix
         type="luminanceToAlpha"
         result="result2"
         id="feColorMatrix46" />
      <feComposite
         in2="SourceGraphic"
         operator="arithmetic"
         in="result2"
         k3="2"
         result="result4"
         id="feComposite48" />
      <feBlend
         in="result4"
         mode="multiply"
         result="result3"
         in2="result2"
         id="feBlend50" />
      <feComposite
         in2="SourceGraphic"
         operator="in"
         in="result3"
         id="feComposite52" />
    </filter>
  </defs>
  <path
     class="tds-icon-fill--primary"
     d="M0 .1a9.7 9.7 0 007 6.93h10.93l.56.22v27.58h6.82V7.29l.62-.22h10.94a9.82 9.82 0 007-6.93V.07H0V.1zM238.61.06h-6.8v34.85h31.14a9.68 9.68 0 005.94-6.86h-30.3l.02-27.99zm-52.33 6.86c3.62-1 6.66-3.82 7.39-6.88l-38.1.06v20.55h31.17v7.23h-24.46a13.6 13.6 0 00-8.71 7h39.89V13.81H162.3V6.92h23.98zm116.17 27.97h6.76V20.87h24.58v14.02h6.75V13.87l-38.09-.04zM85.35 7h26a9.57 9.57 0 007.05-7H78.3a9.61 9.61 0 007.05 7zm0 13.77h26a9.59 9.59 0 007.05-7H78.3a9.63 9.63 0 007.05 7zm0 14.14h26a9.59 9.59 0 007.05-7H78.3a9.62 9.62 0 007.05 7zM308.46 7.02h26a9.58 9.58 0 007.06-7h-40.11a9.59 9.59 0 007.05 7z"
     fill="#000000"
     id="path20" />
  <path
     style="fill:#000000;fill-opacity:0;stroke-width:0.320225"
     d="M 18.573034,20.86236 V 6.9325843 l -5.844101,-0.00703 C 7.7402583,6.9195482 6.6942763,6.8319687 5.5829976,6.3272279 3.276882,5.2797937 1.1199079,2.9909144 0.49527018,0.92837079 L 0.27706634,0.20786517 H 21.935393 43.593722 L 43.375517,0.92837079 C 42.750877,2.9909144 40.593905,5.2797937 38.28779,6.3272279 37.176511,6.8319687 36.130529,6.9195482 31.141854,6.9255515 l -5.844101,0.00703 V 20.86236 34.792135 h -3.36236 -3.362359 z"
     id="path42" />
  <path
     style="fill:#000000;fill-opacity:0;stroke-width:0.320225;filter:url(#filter54)"
     d="M 18.573034,20.86236 V 6.9325843 l -5.844101,-0.00703 C 7.7402583,6.9195482 6.6942763,6.8319687 5.5829976,6.3272279 3.276882,5.2797937 1.1199079,2.9909144 0.49527018,0.92837079 L 0.27706634,0.20786517 H 21.935393 43.593722 L 43.375517,0.92837079 C 42.750877,2.9909144 40.593905,5.2797937 38.28779,6.3272279 37.176511,6.8319687 36.130529,6.9195482 31.141854,6.9255515 l -5.844101,0.00703 V 20.86236 34.792135 h -3.36236 -3.362359 z"
     id="path44" />
  <path
     style="fill:#000000;fill-opacity:0;stroke-width:0.320225"
     d="M 18.573034,20.86236 V 6.9325843 l -5.844101,-0.00703 C 7.7402583,6.9195482 6.6942763,6.8319687 5.5829976,6.3272279 3.276882,5.2797937 1.1199079,2.9909144 0.49527018,0.92837079 L 0.27706634,0.20786517 H 21.935393 43.593722 L 43.375517,0.92837079 C 42.750877,2.9909144 40.593905,5.2797937 38.28779,6.3272279 37.176511,6.8319687 36.130529,6.9195482 31.141854,6.9255515 l -5.844101,0.00703 V 20.86236 34.792135 h -3.36236 -3.362359 z"
     id="path56" />
</svg>
