<?xml version="1.0" encoding="UTF-8" standalone="no"?>
<svg
   xmlns:dc="http://purl.org/dc/elements/1.1/"
   xmlns:cc="http://creativecommons.org/ns#"
   xmlns:rdf="http://www.w3.org/1999/02/22-rdf-syntax-ns#"
   xmlns:svg="http://www.w3.org/2000/svg"
   xmlns="http://www.w3.org/2000/svg"
   xmlns:sodipodi="http://sodipodi.sourceforge.net/DTD/sodipodi-0.dtd"
   xmlns:inkscape="http://www.inkscape.org/namespaces/inkscape"
   height="120.36317"
   width="923.0769"
   viewBox="-41.8008 -9.08425 278.67199 8.2005688"
   version="1.1"
   id="svg12"
   sodipodi:docname="tesla-black2.svg"
   inkscape:version="1.0.2 (e86c870, 2021-01-15)">
  <metadata
     id="metadata18">
    <rdf:RDF>
      <cc:Work
         rdf:about="">
        <dc:format>image/svg+xml</dc:format>
        <dc:type
           rdf:resource="http://purl.org/dc/dcmitype/StillImage" />
        <dc:title></dc:title>
      </cc:Work>
    </rdf:RDF>
  </metadata>
  <defs
     id="defs16" />
  <sodipodi:namedview
     pagecolor="#ffffff"
     bordercolor="#666666"
     borderopacity="1"
     objecttolerance="10"
     gridtolerance="10"
     guidetolerance="10"
     inkscape:pageopacity="0"
     inkscape:pageshadow="2"
     inkscape:window-width="1920"
     inkscape:window-height="1017"
     id="namedview14"
     showgrid="false"
     inkscape:zoom="0.89"
     inkscape:cx="461.53846"
     inkscape:cy="60.181587"
     inkscape:window-x="-8"
     inkscape:window-y="-8"
     inkscape:window-maximized="1"
     inkscape:current-layer="svg12" />
  <path
     d="M 196.95461,-8.4936079 V 13.418392 h 7.027 V -1.1706079 h 25.575 V 13.418392 h 7.022 V -8.4556079 l -39.624,-0.038 m 6.244,-7.0880001 h 27.02 c 3.753,-0.746 6.544,-4.058 7.331,-7.262003 h -41.681 c 0.779,3.205003 3.611,6.516003 7.33,7.262003 m -27.526,29.014 c 3.543,-1.502 5.449,-4.0999999 6.179,-7.1399999 h -31.517 l 0.02,-29.1180031 -7.065,0.02 v 36.238003 h 32.383 m -84.920995,-29.112 h 24.953995 c 3.762,-1.093 6.921,-3.959 7.691,-7.136003 H 83.756615 v 21.4150031 h 32.443995 v 7.515 l -25.448995,0.02 c -3.988,1.112 -7.37,3.79 -9.057,7.3269999 l 2.062,-0.038 H 123.17161 V -8.5206079 H 90.751615 v -7.1590001 m -61.603,0.069 h 27.011 c 3.758,-0.749 6.551,-4.058 7.334,-7.265003 h -41.679 c 0.778,3.207003 3.612,6.516003 7.334,7.265003 m 0,14.3220001 h 27.011 c 3.758,-0.741 6.551,-4.053 7.334,-7.262 h -41.679 c 0.778,3.21 3.612,6.521 7.334,7.262 m 0,14.7169999 h 27.011 c 3.758,-0.747 6.551,-4.0579999 7.334,-7.2629999 h -41.679 c 0.778,3.206 3.612,6.5159999 7.334,7.2629999 m -70.271,-36.216003 c 0.812,3.167003 3.554,6.404003 7.316,7.215003 h 11.37 l 0.58,0.229 v 28.691 h 7.1 v -28.691 l 0.645,-0.229 h 11.38 c 3.804,-0.98 6.487,-4.048 7.285,-7.215003 v -0.07 h -45.676 v 0.07"
     id="path10" />
</svg>
